<mxfile host="app.diagrams.net" modified="2022-04-11T04:02:36.343Z" agent="5.0 (Macintosh)" etag="tMDy8-87MOZqXZI22fDA" version="17.4.2" type="github">
  <diagram id="tAeMHb9Ar-OXJrSxvU-6" name="Page-1">
    <mxGraphModel dx="706" dy="464" grid="1" gridSize="10" guides="1" tooltips="1" connect="1" arrows="1" fold="1" page="1" pageScale="1" pageWidth="1169" pageHeight="1654" math="0" shadow="0">
      <root>
        <mxCell id="0" />
        <mxCell id="1" parent="0" />
        <mxCell id="wgeoQxnSbOfPKZWMmnW--13" value="Non-Runnable" style="rounded=1;whiteSpace=wrap;html=1;fillColor=#fff2cc;strokeColor=#d6b656;strokeWidth=4;align=center;verticalAlign=bottom;fontSize=14;" vertex="1" parent="1">
          <mxGeometry x="360" y="500" width="440" height="340" as="geometry" />
        </mxCell>
        <mxCell id="wgeoQxnSbOfPKZWMmnW--14" value="start" style="edgeStyle=orthogonalEdgeStyle;rounded=0;orthogonalLoop=1;jettySize=auto;html=1;exitX=1;exitY=0.5;exitDx=0;exitDy=0;entryX=0;entryY=0.5;entryDx=0;entryDy=0;fontSize=10;verticalAlign=bottom;" edge="1" parent="1" source="wgeoQxnSbOfPKZWMmnW--3" target="wgeoQxnSbOfPKZWMmnW--10">
          <mxGeometry relative="1" as="geometry" />
        </mxCell>
        <mxCell id="wgeoQxnSbOfPKZWMmnW--3" value="New" style="ellipse;whiteSpace=wrap;html=1;fillColor=#d5e8d4;strokeColor=#82b366;strokeWidth=4;" vertex="1" parent="1">
          <mxGeometry x="260" y="360" width="120" height="40" as="geometry" />
        </mxCell>
        <mxCell id="wgeoQxnSbOfPKZWMmnW--33" style="edgeStyle=orthogonalEdgeStyle;rounded=0;orthogonalLoop=1;jettySize=auto;html=1;exitX=1;exitY=0.5;exitDx=0;exitDy=0;labelBackgroundColor=none;fontSize=12;" edge="1" parent="1" source="wgeoQxnSbOfPKZWMmnW--6">
          <mxGeometry relative="1" as="geometry">
            <mxPoint x="710" y="680" as="targetPoint" />
          </mxGeometry>
        </mxCell>
        <mxCell id="wgeoQxnSbOfPKZWMmnW--6" value="Waiting" style="ellipse;whiteSpace=wrap;html=1;fillColor=#d5e8d4;strokeColor=#82b366;strokeWidth=4;" vertex="1" parent="1">
          <mxGeometry x="520" y="660" width="120" height="40" as="geometry" />
        </mxCell>
        <mxCell id="wgeoQxnSbOfPKZWMmnW--25" style="edgeStyle=orthogonalEdgeStyle;rounded=0;orthogonalLoop=1;jettySize=auto;html=1;exitX=1;exitY=0;exitDx=0;exitDy=0;entryX=0.929;entryY=1;entryDx=0;entryDy=0;labelBackgroundColor=none;fontSize=12;entryPerimeter=0;" edge="1" parent="1" source="wgeoQxnSbOfPKZWMmnW--5" target="wgeoQxnSbOfPKZWMmnW--10">
          <mxGeometry relative="1" as="geometry">
            <Array as="points">
              <mxPoint x="700" y="586" />
              <mxPoint x="700" y="460" />
            </Array>
          </mxGeometry>
        </mxCell>
        <mxCell id="wgeoQxnSbOfPKZWMmnW--28" value="&lt;div style=&quot;font-size: 10px;&quot;&gt;Time elapsed&lt;/div&gt;" style="edgeLabel;html=1;align=right;verticalAlign=middle;resizable=0;points=[];fontSize=10;labelBackgroundColor=none;" vertex="1" connectable="0" parent="wgeoQxnSbOfPKZWMmnW--25">
          <mxGeometry x="-0.6926" y="1" relative="1" as="geometry">
            <mxPoint x="46" y="-5" as="offset" />
          </mxGeometry>
        </mxCell>
        <mxCell id="wgeoQxnSbOfPKZWMmnW--34" value="" style="edgeStyle=orthogonalEdgeStyle;rounded=0;orthogonalLoop=1;jettySize=auto;html=1;exitX=1;exitY=0.5;exitDx=0;exitDy=0;labelBackgroundColor=none;fontSize=10;startArrow=none;startFill=0;verticalAlign=top;" edge="1" parent="1" source="wgeoQxnSbOfPKZWMmnW--5">
          <mxGeometry relative="1" as="geometry">
            <mxPoint x="710" y="600" as="targetPoint" />
          </mxGeometry>
        </mxCell>
        <mxCell id="wgeoQxnSbOfPKZWMmnW--5" value="Timed Waiting" style="ellipse;whiteSpace=wrap;html=1;fillColor=#d5e8d4;strokeColor=#82b366;strokeWidth=4;" vertex="1" parent="1">
          <mxGeometry x="520" y="580" width="120" height="40" as="geometry" />
        </mxCell>
        <mxCell id="wgeoQxnSbOfPKZWMmnW--27" style="edgeStyle=orthogonalEdgeStyle;rounded=0;orthogonalLoop=1;jettySize=auto;html=1;exitX=1;exitY=0.5;exitDx=0;exitDy=0;labelBackgroundColor=none;fontSize=12;entryX=1;entryY=1;entryDx=0;entryDy=0;" edge="1" parent="1" source="wgeoQxnSbOfPKZWMmnW--8" target="wgeoQxnSbOfPKZWMmnW--10">
          <mxGeometry relative="1" as="geometry">
            <mxPoint x="724" y="460" as="targetPoint" />
            <Array as="points">
              <mxPoint x="720" y="760" />
            </Array>
          </mxGeometry>
        </mxCell>
        <mxCell id="wgeoQxnSbOfPKZWMmnW--30" value="&lt;div style=&quot;font-size: 10px;&quot;&gt;Monitor lock acquired&lt;/div&gt;" style="edgeLabel;html=1;align=center;verticalAlign=top;resizable=0;points=[];fontSize=10;labelBackgroundColor=none;" vertex="1" connectable="0" parent="wgeoQxnSbOfPKZWMmnW--27">
          <mxGeometry x="-0.8202" y="1" relative="1" as="geometry">
            <mxPoint x="16" y="1" as="offset" />
          </mxGeometry>
        </mxCell>
        <mxCell id="wgeoQxnSbOfPKZWMmnW--8" value="Blocked" style="ellipse;whiteSpace=wrap;html=1;fillColor=#d5e8d4;strokeColor=#82b366;strokeWidth=4;" vertex="1" parent="1">
          <mxGeometry x="520" y="740" width="120" height="40" as="geometry" />
        </mxCell>
        <mxCell id="wgeoQxnSbOfPKZWMmnW--15" value="exit" style="edgeStyle=orthogonalEdgeStyle;rounded=0;orthogonalLoop=1;jettySize=auto;html=1;exitX=1;exitY=0.5;exitDx=0;exitDy=0;entryX=0;entryY=0.5;entryDx=0;entryDy=0;fontSize=10;verticalAlign=bottom;" edge="1" parent="1" source="wgeoQxnSbOfPKZWMmnW--10" target="wgeoQxnSbOfPKZWMmnW--9">
          <mxGeometry relative="1" as="geometry" />
        </mxCell>
        <mxCell id="wgeoQxnSbOfPKZWMmnW--26" style="edgeStyle=orthogonalEdgeStyle;rounded=0;orthogonalLoop=1;jettySize=auto;html=1;exitX=1;exitY=0;exitDx=0;exitDy=0;labelBackgroundColor=none;fontSize=12;startArrow=classic;startFill=1;" edge="1" parent="1" source="wgeoQxnSbOfPKZWMmnW--8">
          <mxGeometry relative="1" as="geometry">
            <mxPoint x="710" y="460" as="targetPoint" />
            <Array as="points">
              <mxPoint x="710" y="746" />
              <mxPoint x="710" y="460" />
            </Array>
          </mxGeometry>
        </mxCell>
        <mxCell id="wgeoQxnSbOfPKZWMmnW--29" value="&lt;div style=&quot;font-size: 10px;&quot;&gt;notify()&lt;/div&gt;&lt;div style=&quot;font-size: 10px;&quot;&gt;notifyAll()&lt;br style=&quot;font-size: 10px;&quot;&gt;&lt;/div&gt;" style="edgeLabel;html=1;align=right;verticalAlign=middle;resizable=0;points=[];fontSize=10;labelBackgroundColor=none;" vertex="1" connectable="0" parent="wgeoQxnSbOfPKZWMmnW--26">
          <mxGeometry x="-0.696" y="-2" relative="1" as="geometry">
            <mxPoint x="21" y="-78" as="offset" />
          </mxGeometry>
        </mxCell>
        <mxCell id="wgeoQxnSbOfPKZWMmnW--19" style="edgeStyle=orthogonalEdgeStyle;rounded=0;orthogonalLoop=1;jettySize=auto;html=1;exitX=0;exitY=1;exitDx=0;exitDy=0;entryX=0;entryY=0.5;entryDx=0;entryDy=0;fontSize=12;" edge="1" parent="1" source="wgeoQxnSbOfPKZWMmnW--10" target="wgeoQxnSbOfPKZWMmnW--5">
          <mxGeometry relative="1" as="geometry" />
        </mxCell>
        <mxCell id="wgeoQxnSbOfPKZWMmnW--20" value="&lt;div style=&quot;font-size: 10px;&quot;&gt;parkUntil(deadline)&lt;/div&gt;&lt;div style=&quot;font-size: 10px;&quot;&gt;parkNanos(nanos)&lt;/div&gt;&lt;div style=&quot;font-size: 10px;&quot;&gt;sleep(time)&lt;/div&gt;&lt;div style=&quot;font-size: 10px;&quot;&gt;wait(timeout)&lt;/div&gt;&lt;div style=&quot;font-size: 10px;&quot;&gt;join(timeout)&lt;/div&gt;" style="edgeLabel;html=1;align=left;verticalAlign=middle;resizable=0;points=[];fontSize=10;labelBackgroundColor=none;" vertex="1" connectable="0" parent="wgeoQxnSbOfPKZWMmnW--19">
          <mxGeometry x="-0.6873" y="1" relative="1" as="geometry">
            <mxPoint x="-1" y="76" as="offset" />
          </mxGeometry>
        </mxCell>
        <mxCell id="wgeoQxnSbOfPKZWMmnW--21" style="edgeStyle=orthogonalEdgeStyle;rounded=0;orthogonalLoop=1;jettySize=auto;html=1;exitX=0;exitY=1;exitDx=0;exitDy=0;entryX=0;entryY=0.5;entryDx=0;entryDy=0;labelBackgroundColor=none;fontSize=12;" edge="1" parent="1" source="wgeoQxnSbOfPKZWMmnW--10" target="wgeoQxnSbOfPKZWMmnW--6">
          <mxGeometry relative="1" as="geometry" />
        </mxCell>
        <mxCell id="wgeoQxnSbOfPKZWMmnW--22" value="&lt;div style=&quot;font-size: 10px;&quot;&gt;wait()&lt;/div&gt;&lt;div style=&quot;font-size: 10px;&quot;&gt;join()&lt;/div&gt;&lt;div style=&quot;font-size: 10px;&quot;&gt;park()&lt;br style=&quot;font-size: 10px;&quot;&gt;&lt;/div&gt;" style="edgeLabel;html=1;align=left;verticalAlign=middle;resizable=0;points=[];fontSize=10;labelBackgroundColor=none;" vertex="1" connectable="0" parent="wgeoQxnSbOfPKZWMmnW--21">
          <mxGeometry x="0.1778" y="1" relative="1" as="geometry">
            <mxPoint x="-1" y="23" as="offset" />
          </mxGeometry>
        </mxCell>
        <mxCell id="wgeoQxnSbOfPKZWMmnW--23" style="edgeStyle=orthogonalEdgeStyle;rounded=0;orthogonalLoop=1;jettySize=auto;html=1;exitX=0;exitY=1;exitDx=0;exitDy=0;entryX=0;entryY=0.5;entryDx=0;entryDy=0;labelBackgroundColor=none;fontSize=12;" edge="1" parent="1" source="wgeoQxnSbOfPKZWMmnW--10" target="wgeoQxnSbOfPKZWMmnW--8">
          <mxGeometry relative="1" as="geometry" />
        </mxCell>
        <mxCell id="wgeoQxnSbOfPKZWMmnW--24" value="&lt;div style=&quot;font-size: 10px;&quot;&gt;Waiting for object monitor&lt;br style=&quot;font-size: 10px;&quot;&gt;&lt;/div&gt;" style="edgeLabel;html=1;align=center;verticalAlign=top;resizable=0;points=[];fontSize=10;labelBackgroundColor=none;" vertex="1" connectable="0" parent="wgeoQxnSbOfPKZWMmnW--23">
          <mxGeometry x="0.4619" y="2" relative="1" as="geometry">
            <mxPoint x="18" y="22" as="offset" />
          </mxGeometry>
        </mxCell>
        <mxCell id="wgeoQxnSbOfPKZWMmnW--10" value="Runnable" style="rounded=1;whiteSpace=wrap;html=1;fillColor=#d5e8d4;strokeColor=#82b366;strokeWidth=4;align=center;verticalAlign=top;fontSize=14;" vertex="1" parent="1">
          <mxGeometry x="440" y="300" width="280" height="160" as="geometry" />
        </mxCell>
        <mxCell id="wgeoQxnSbOfPKZWMmnW--9" value="Terminated" style="ellipse;whiteSpace=wrap;html=1;fillColor=#d5e8d4;strokeColor=#82b366;strokeWidth=4;" vertex="1" parent="1">
          <mxGeometry x="780" y="360" width="120" height="40" as="geometry" />
        </mxCell>
        <mxCell id="wgeoQxnSbOfPKZWMmnW--18" value="suspended" style="edgeStyle=orthogonalEdgeStyle;rounded=0;orthogonalLoop=1;jettySize=auto;html=1;exitX=0.5;exitY=1;exitDx=0;exitDy=0;entryX=0.5;entryY=1;entryDx=0;entryDy=0;fontSize=10;verticalAlign=top;labelBackgroundColor=none;" edge="1" parent="1" source="wgeoQxnSbOfPKZWMmnW--11" target="wgeoQxnSbOfPKZWMmnW--12">
          <mxGeometry relative="1" as="geometry" />
        </mxCell>
        <mxCell id="wgeoQxnSbOfPKZWMmnW--11" value="Running" style="ellipse;whiteSpace=wrap;html=1;fillColor=#fff2cc;strokeColor=#d6b656;strokeWidth=4;fontSize=10;" vertex="1" parent="1">
          <mxGeometry x="600" y="365" width="90" height="30" as="geometry" />
        </mxCell>
        <mxCell id="wgeoQxnSbOfPKZWMmnW--17" value="scheduled" style="edgeStyle=orthogonalEdgeStyle;rounded=0;orthogonalLoop=1;jettySize=auto;html=1;exitX=0.5;exitY=0;exitDx=0;exitDy=0;entryX=0.5;entryY=0;entryDx=0;entryDy=0;fontSize=10;verticalAlign=bottom;labelBackgroundColor=none;" edge="1" parent="1" source="wgeoQxnSbOfPKZWMmnW--12" target="wgeoQxnSbOfPKZWMmnW--11">
          <mxGeometry relative="1" as="geometry" />
        </mxCell>
        <mxCell id="wgeoQxnSbOfPKZWMmnW--12" value="Ready to Run" style="ellipse;whiteSpace=wrap;html=1;fillColor=#fff2cc;strokeColor=#d6b656;strokeWidth=4;fontSize=10;" vertex="1" parent="1">
          <mxGeometry x="470" y="365" width="90" height="30" as="geometry" />
        </mxCell>
        <mxCell id="wgeoQxnSbOfPKZWMmnW--37" value="&lt;div style=&quot;font-size: 10px;&quot;&gt;notify()&lt;/div&gt;&lt;div style=&quot;font-size: 10px;&quot;&gt;notifyAll()&lt;br style=&quot;font-size: 10px;&quot;&gt;&lt;/div&gt;" style="edgeLabel;html=1;align=right;verticalAlign=middle;resizable=0;points=[];fontSize=10;labelBackgroundColor=none;" vertex="1" connectable="0" parent="1">
          <mxGeometry x="700.0039687029425" y="610.0028532466314" as="geometry" />
        </mxCell>
      </root>
    </mxGraphModel>
  </diagram>
</mxfile>
